<svg width="753" height="287" viewBox="0 0 753 287" fill="none" xmlns="http://www.w3.org/2000/svg">
<rect x="219.509" y="165.502" width="12.9298" height="26.5152" fill="black"/>
<rect x="426.499" y="165.502" width="12.9298" height="32.3038" fill="black"/>
<rect x="323.007" y="109.078" width="12.9298" height="30.61" fill="black"/>
<path d="M93.8857 66.4668H106.819V80.5753H138.269V66.4668H151.202V116.63H93.8857V66.4668ZM106.819 92.1365V105.265H138.269V92.1365H106.819Z" fill="black"/>
<path d="M507.974 66.2734H520.906V80.382H552.357V66.2734H565.29V116.437H507.974V66.2734ZM520.906 91.9431V105.072H552.357V91.9431H520.906Z" fill="black"/>
<path d="M300.816 66.4668H357.349V76.7543H313.847V108.401H300.816V66.4668ZM300.816 105.167H358.132V115.553H300.816V105.167Z" fill="black"/>
<path d="M404.261 104.289H461.675V153.179H448.84V114.675H404.261V104.289Z" fill="black"/>
<path d="M611.418 80.1387H668.832V129.029H655.997V90.5241H611.418V80.1387Z" fill="black"/>
<path d="M599.176 142.412H681.084V154.46H599.176V142.412ZM633.565 151.533H646.596V178.525H633.565V151.533Z" fill="black"/>
<path d="M93.1035 178.145H150.811V207.831H105.644V223.311H93.2995V197.642H138.368V188.334H93.1035V178.145ZM93.2995 217.531H152.183V228.112H93.2995V217.531Z" fill="black"/>
<path d="M196.445 104.289H254.153V133.976H208.986V149.456H196.641V123.786H241.71V114.479H196.445V104.289ZM196.641 143.675H255.525V154.257H196.641V143.675Z" fill="black"/>
<path d="M174.237 165.523C166.555 144.38 146.284 129.278 122.486 129.278C98.6886 129.278 78.4178 144.38 70.7354 165.523H85.791C92.6255 152.21 106.492 143.101 122.486 143.101C138.481 143.101 152.347 152.21 159.182 165.523H174.237Z" fill="#A9C067"/>
<path d="M381.217 165.523C373.534 144.38 353.264 129.278 329.466 129.278C305.668 129.279 285.398 144.381 277.716 165.523H292.771C299.605 152.21 313.472 143.101 329.466 143.101C345.46 143.101 359.327 152.21 366.161 165.523H381.217Z" fill="#A9C067"/>
<path d="M588.39 165.523C580.707 144.38 560.437 129.278 536.639 129.278C512.841 129.278 492.57 144.38 484.888 165.523H499.948C506.783 152.21 520.649 143.101 536.644 143.101C552.638 143.101 566.504 152.21 573.339 165.523H588.39Z" fill="#A9C067"/>
<path d="M277.726 165.49C270.04 186.628 249.773 201.725 225.979 201.726C202.185 201.726 181.918 186.628 174.232 165.49H189.277C196.114 178.798 209.977 187.903 225.968 187.903C241.958 187.903 255.822 178.798 262.658 165.49H277.726Z" fill="#A9C067"/>
<path d="M484.711 165.49C477.026 186.628 456.758 201.726 432.964 201.726C409.17 201.725 388.902 186.628 381.217 165.49H396.278C403.115 178.798 416.978 187.903 432.969 187.903C448.959 187.903 462.824 178.798 469.66 165.49H484.711Z" fill="#A9C067"/>
<path d="M691.869 178.08C684.181 199.212 663.916 214.304 640.126 214.304C616.336 214.304 596.071 199.212 588.383 178.08H603.426C610.262 191.388 624.125 200.492 640.115 200.492C656.105 200.492 669.968 191.388 676.805 178.08H691.869Z" fill="#A9C067"/>
<path d="M507.438 217.828H565.831V228.116H507.438V217.828ZM507.438 180.695H520.566V221.747H507.438V180.695Z" fill="black"/>
<circle cx="122.644" cy="160.107" r="9.41382" fill="#FFD95E"/>
<circle cx="535.95" cy="160.107" r="9.41382" fill="#FFD95E"/>
<path d="M329.453 165.494C346.742 165.494 360.757 179.509 360.757 196.798C360.756 214.086 346.741 228.102 329.453 228.102C312.165 228.101 298.15 214.086 298.149 196.798C298.149 179.51 312.165 165.495 329.453 165.494ZM325.186 189.12L313.3 181.351L308.615 188.518L321.275 196.794L307.99 204.93L312.462 212.232L325.186 204.44V218.974H333.749V204.947L345.738 212.785L350.424 205.618L337.287 197.03L350.285 189.071L345.813 181.769L333.749 189.155V174.622H325.186V189.12Z" fill="#FFD95E"/>
</svg>
