<svg width="753" height="287" viewBox="0 0 753 287" fill="none" xmlns="http://www.w3.org/2000/svg">
<rect x="315.685" y="161.234" width="12.5907" height="25.8198" fill="white"/>
<rect x="546.907" y="142.941" width="12.5907" height="25.8198" transform="rotate(-90 546.907 142.941)" fill="white"/>
<path d="M193.347 64.7969H205.94V78.5354H236.566V64.7969H249.159V113.645H193.347V64.7969ZM205.94 89.7933V102.578H236.566V89.7933H205.94Z" fill="white"/>
<path d="M192.596 173.545H248.79V202.453H204.808V217.527H192.787V192.531H236.673V183.467H192.596V173.545ZM192.787 211.898H250.126V222.202H192.787V211.898Z" fill="white"/>
<path d="M293.226 101.625H349.42V130.533H305.438V145.607H293.416V120.611H337.303V111.547H293.226V101.625ZM293.416 139.978H350.756V150.282H293.416V139.978Z" fill="white"/>
<path d="M477.386 112.477H533.58V141.385H489.598V156.459H477.577V131.462H521.463V122.399H477.386V112.477ZM477.577 150.83H534.916V161.134H477.577V150.83Z" fill="white"/>
<path d="M271.59 161.242C264.106 140.659 244.37 125.958 221.2 125.958C198.031 125.958 178.296 140.659 170.812 161.242H185.478C192.134 148.282 205.634 139.415 221.206 139.415C236.778 139.415 250.278 148.282 256.935 161.242H271.59Z" fill="#A9C067"/>
<path d="M372.367 161.234C364.883 181.816 345.148 196.517 321.979 196.517C298.809 196.517 279.074 181.816 271.59 161.234H286.244C292.902 174.192 306.401 183.056 321.971 183.057C337.541 183.057 351.04 174.192 357.698 161.234H372.367Z" fill="#A9C067"/>
<path d="M546.906 86.2627C567.489 93.7468 582.189 113.481 582.189 136.65C582.189 159.82 567.489 179.555 546.906 187.039L546.906 172.386C559.865 165.729 568.731 152.229 568.731 136.658C568.731 121.087 559.865 107.588 546.906 100.931L546.906 86.2627Z" fill="#A9C067"/>
<circle cx="221.363" cy="155.977" r="9.16692" fill="#FFD95E"/>
<path d="M395.07 64.7969H407.664V78.5354H438.289V64.7969H450.883V113.645H395.07V64.7969ZM407.664 89.7933V102.578H438.289V89.7933H407.664Z" fill="white"/>
<path d="M394.319 173.545H450.514V202.453H406.531V217.527H394.51V192.531H438.397V183.467H394.319V173.545ZM394.51 211.898H451.849V222.202H394.51V211.898Z" fill="white"/>
<path d="M473.312 161.242C465.829 140.659 446.093 125.958 422.924 125.958C399.754 125.958 380.019 140.659 372.535 161.242H387.201C393.858 148.282 407.358 139.415 422.93 139.415C438.501 139.415 452.001 148.282 458.658 161.242H473.312Z" fill="#A9C067"/>
<circle cx="423.087" cy="155.977" r="9.16692" fill="#FFD95E"/>
</svg>
