<svg width="915" height="600" viewBox="0 0 915 600" fill="none" xmlns="http://www.w3.org/2000/svg">
<circle cx="397.76" cy="430.409" r="13.962" fill="white"/>
<mask id="path-2-inside-1_1583_1107" fill="white">
<path d="M397.763 416.445C405.474 416.445 411.725 422.696 411.725 430.407C411.725 438.118 405.474 444.369 397.763 444.369C390.052 444.369 383.801 438.118 383.801 430.407C383.801 422.696 390.052 416.445 397.763 416.445ZM395.854 426.98L390.557 423.518L388.467 426.715L394.112 430.405L388.191 434.031L390.186 437.289L395.854 433.817V440.299H399.674V434.04L405.024 437.538L407.114 434.342L401.254 430.51L407.056 426.958L405.062 423.701L399.674 427V420.518H395.854V426.98Z"/>
</mask>
<path d="M397.763 416.445C405.474 416.445 411.725 422.696 411.725 430.407C411.725 438.118 405.474 444.369 397.763 444.369C390.052 444.369 383.801 438.118 383.801 430.407C383.801 422.696 390.052 416.445 397.763 416.445ZM395.854 426.98L390.557 423.518L388.467 426.715L394.112 430.405L388.191 434.031L390.186 437.289L395.854 433.817V440.299H399.674V434.04L405.024 437.538L407.114 434.342L401.254 430.51L407.056 426.958L405.062 423.701L399.674 427V420.518H395.854V426.98Z" fill="#FFD95E"/>
<path d="M397.763 416.445L397.763 415.606H397.763L397.763 416.445ZM411.725 430.407L412.564 430.407V430.407H411.725ZM397.763 444.369L397.763 445.209H397.763L397.763 444.369ZM383.801 430.407H382.961V430.407L383.801 430.407ZM395.854 426.98L395.395 427.683L396.694 428.532V426.98H395.854ZM390.557 423.518L391.016 422.815L390.313 422.356L389.854 423.058L390.557 423.518ZM388.467 426.715L387.764 426.256L387.305 426.958L388.008 427.417L388.467 426.715ZM394.112 430.405L394.551 431.121L395.682 430.428L394.572 429.703L394.112 430.405ZM388.191 434.031L387.753 433.315L387.037 433.754L387.475 434.469L388.191 434.031ZM390.186 437.289L389.47 437.727L389.908 438.443L390.624 438.005L390.186 437.289ZM395.854 433.817H396.694V432.319L395.416 433.102L395.854 433.817ZM395.854 440.299H395.015V441.138H395.854V440.299ZM399.674 440.299V441.138H400.513V440.299H399.674ZM399.674 434.04L400.133 433.337L398.834 432.488V434.04H399.674ZM405.024 437.538L404.565 438.241L405.268 438.7L405.727 437.997L405.024 437.538ZM407.114 434.342L407.817 434.801L408.276 434.099L407.574 433.639L407.114 434.342ZM401.254 430.51L400.816 429.794L399.684 430.486L400.795 431.212L401.254 430.51ZM407.056 426.958L407.494 427.674L408.21 427.236L407.772 426.52L407.056 426.958ZM405.062 423.701L405.777 423.263L405.339 422.547L404.623 422.985L405.062 423.701ZM399.674 427H398.834V428.498L400.112 427.716L399.674 427ZM399.674 420.518H400.513V419.678H399.674V420.518ZM395.854 420.518V419.678H395.015V420.518H395.854ZM397.763 416.445L397.763 417.285C405.01 417.285 410.885 423.16 410.885 430.407H411.725H412.564C412.564 422.233 405.937 415.606 397.763 415.606L397.763 416.445ZM411.725 430.407L410.885 430.407C410.885 437.655 405.01 443.53 397.763 443.53L397.763 444.369L397.763 445.209C405.937 445.209 412.564 438.582 412.564 430.407L411.725 430.407ZM397.763 444.369L397.763 443.53C390.515 443.53 384.64 437.655 384.64 430.407L383.801 430.407L382.961 430.407C382.961 438.582 389.588 445.208 397.763 445.209L397.763 444.369ZM383.801 430.407H384.64C384.64 423.16 390.515 417.285 397.763 417.285L397.763 416.445L397.763 415.606C389.588 415.606 382.961 422.233 382.961 430.407H383.801ZM395.854 426.98L396.314 426.278L391.016 422.815L390.557 423.518L390.097 424.22L395.395 427.683L395.854 426.98ZM390.557 423.518L389.854 423.058L387.764 426.256L388.467 426.715L389.169 427.174L391.259 423.977L390.557 423.518ZM388.467 426.715L388.008 427.417L393.653 431.108L394.112 430.405L394.572 429.703L388.926 426.012L388.467 426.715ZM394.112 430.405L393.674 429.689L387.753 433.315L388.191 434.031L388.63 434.747L394.551 431.121L394.112 430.405ZM388.191 434.031L387.475 434.469L389.47 437.727L390.186 437.289L390.901 436.851L388.907 433.593L388.191 434.031ZM390.186 437.289L390.624 438.005L396.293 434.533L395.854 433.817L395.416 433.102L389.747 436.573L390.186 437.289ZM395.854 433.817H395.015V440.299H395.854H396.694V433.817H395.854ZM395.854 440.299V441.138H399.674V440.299V439.459H395.854V440.299ZM399.674 440.299H400.513V434.04H399.674H398.834V440.299H399.674ZM399.674 434.04L399.215 434.743L404.565 438.241L405.024 437.538L405.484 436.836L400.133 433.337L399.674 434.04ZM405.024 437.538L405.727 437.997L407.817 434.801L407.114 434.342L406.412 433.882L404.322 437.079L405.024 437.538ZM407.114 434.342L407.574 433.639L401.713 429.807L401.254 430.51L400.795 431.212L406.655 435.044L407.114 434.342ZM401.254 430.51L401.692 431.226L407.494 427.674L407.056 426.958L406.617 426.242L400.816 429.794L401.254 430.51ZM407.056 426.958L407.772 426.52L405.777 423.263L405.062 423.701L404.346 424.139L406.34 427.396L407.056 426.958ZM405.062 423.701L404.623 422.985L399.236 426.284L399.674 427L400.112 427.716L405.5 424.417L405.062 423.701ZM399.674 427H400.513V420.518H399.674H398.834V427H399.674ZM399.674 420.518V419.678H395.854V420.518V421.357H399.674V420.518ZM395.854 420.518H395.015V426.98H395.854H396.694V420.518H395.854Z" fill="#987F2D" mask="url(#path-2-inside-1_1583_1107)"/>
<circle cx="433.441" cy="416.448" r="13.962" fill="white"/>
<mask id="path-5-inside-2_1583_1107" fill="white">
<path d="M433.442 402.484C441.153 402.484 447.404 408.735 447.404 416.446C447.404 424.157 441.153 430.408 433.442 430.408C425.731 430.408 419.48 424.157 419.48 416.446C419.481 408.735 425.731 402.484 433.442 402.484ZM431.534 413.018L426.236 409.555L424.146 412.752L429.793 416.442L423.87 420.07L425.864 423.328L431.534 419.855V426.336H435.354V420.077L440.704 423.575L442.794 420.379L436.935 416.548L442.734 412.997L440.74 409.74L435.354 413.038V406.555H431.534V413.018Z"/>
</mask>
<path d="M433.442 402.484C441.153 402.484 447.404 408.735 447.404 416.446C447.404 424.157 441.153 430.408 433.442 430.408C425.731 430.408 419.48 424.157 419.48 416.446C419.481 408.735 425.731 402.484 433.442 402.484ZM431.534 413.018L426.236 409.555L424.146 412.752L429.793 416.442L423.87 420.07L425.864 423.328L431.534 419.855V426.336H435.354V420.077L440.704 423.575L442.794 420.379L436.935 416.548L442.734 412.997L440.74 409.74L435.354 413.038V406.555H431.534V413.018Z" fill="#FFD95E"/>
<path d="M433.442 402.484V401.645H433.442L433.442 402.484ZM447.404 416.446H448.244V416.446L447.404 416.446ZM433.442 430.408L433.442 431.248H433.442V430.408ZM419.48 416.446L418.641 416.446V416.446H419.48ZM431.534 413.018L431.075 413.72L432.374 414.569V413.018H431.534ZM426.236 409.555L426.696 408.852L425.993 408.393L425.534 409.095L426.236 409.555ZM424.146 412.752L423.444 412.293L422.985 412.995L423.687 413.455L424.146 412.752ZM429.793 416.442L430.231 417.158L431.362 416.465L430.252 415.74L429.793 416.442ZM423.87 420.07L423.432 419.355L422.716 419.793L423.154 420.509L423.87 420.07ZM425.864 423.328L425.148 423.766L425.587 424.482L426.303 424.044L425.864 423.328ZM431.534 419.855H432.374V418.357L431.096 419.14L431.534 419.855ZM431.534 426.336H430.695V427.175H431.534V426.336ZM435.354 426.336V427.175H436.193V426.336H435.354ZM435.354 420.077L435.813 419.375L434.514 418.526V420.077H435.354ZM440.704 423.575L440.245 424.278L440.947 424.737L441.407 424.035L440.704 423.575ZM442.794 420.379L443.496 420.838L443.956 420.136L443.253 419.676L442.794 420.379ZM436.935 416.548L436.496 415.832L435.365 416.525L436.475 417.25L436.935 416.548ZM442.734 412.997L443.173 413.713L443.889 413.275L443.45 412.559L442.734 412.997ZM440.74 409.74L441.456 409.302L441.018 408.586L440.302 409.024L440.74 409.74ZM435.354 413.038H434.514V414.536L435.792 413.754L435.354 413.038ZM435.354 406.555H436.193V405.715H435.354V406.555ZM431.534 406.555V405.715H430.695V406.555H431.534ZM433.442 402.484V403.324C440.69 403.324 446.565 409.199 446.565 416.446L447.404 416.446L448.244 416.446C448.244 408.272 441.617 401.645 433.442 401.645V402.484ZM447.404 416.446H446.565C446.565 423.694 440.69 429.569 433.442 429.569V430.408V431.248C441.617 431.248 448.244 424.621 448.244 416.446H447.404ZM433.442 430.408L433.442 429.569C426.195 429.569 420.32 423.694 420.32 416.446H419.48H418.641C418.641 424.621 425.268 431.248 433.442 431.248L433.442 430.408ZM419.48 416.446L420.32 416.446C420.32 409.199 426.195 403.324 433.442 403.324L433.442 402.484L433.442 401.645C425.268 401.645 418.641 408.272 418.641 416.446L419.48 416.446ZM431.534 413.018L431.993 412.315L426.696 408.852L426.236 409.555L425.777 410.257L431.075 413.72L431.534 413.018ZM426.236 409.555L425.534 409.095L423.444 412.293L424.146 412.752L424.849 413.211L426.939 410.014L426.236 409.555ZM424.146 412.752L423.687 413.455L429.334 417.145L429.793 416.442L430.252 415.74L424.606 412.049L424.146 412.752ZM429.793 416.442L429.355 415.727L423.432 419.355L423.87 420.07L424.309 420.786L430.231 417.158L429.793 416.442ZM423.87 420.07L423.154 420.509L425.148 423.766L425.864 423.328L426.58 422.89L424.586 419.632L423.87 420.07ZM425.864 423.328L426.303 424.044L431.973 420.571L431.534 419.855L431.096 419.14L425.426 422.612L425.864 423.328ZM431.534 419.855H430.695V426.336H431.534H432.374V419.855H431.534ZM431.534 426.336V427.175H435.354V426.336V425.497H431.534V426.336ZM435.354 426.336H436.193V420.077H435.354H434.514V426.336H435.354ZM435.354 420.077L434.894 420.78L440.245 424.278L440.704 423.575L441.163 422.873L435.813 419.375L435.354 420.077ZM440.704 423.575L441.407 424.035L443.496 420.838L442.794 420.379L442.091 419.92L440.002 423.116L440.704 423.575ZM442.794 420.379L443.253 419.676L437.394 415.845L436.935 416.548L436.475 417.25L442.335 421.081L442.794 420.379ZM436.935 416.548L437.373 417.264L443.173 413.713L442.734 412.997L442.296 412.281L436.496 415.832L436.935 416.548ZM442.734 412.997L443.45 412.559L441.456 409.302L440.74 409.74L440.024 410.179L442.019 413.435L442.734 412.997ZM440.74 409.74L440.302 409.024L434.915 412.322L435.354 413.038L435.792 413.754L441.179 410.456L440.74 409.74ZM435.354 413.038H436.193V406.555H435.354H434.514V413.038H435.354ZM435.354 406.555V405.715H431.534V406.555V407.394H435.354V406.555ZM431.534 406.555H430.695V413.018H431.534H432.374V406.555H431.534Z" fill="#987F2D" mask="url(#path-5-inside-2_1583_1107)"/>
<circle cx="416.375" cy="376.112" r="13.962" fill="white"/>
<path d="M416.374 362.154C424.085 362.154 430.336 368.405 430.336 376.116C430.336 383.827 424.085 390.078 416.374 390.078C408.663 390.078 402.412 383.827 402.412 376.116C402.412 368.405 408.663 362.154 416.374 362.154ZM414.468 372.686L409.17 369.223L407.08 372.42L412.729 376.111L406.804 379.74L408.798 382.998L414.468 379.525V386.004H418.287V379.745L423.638 383.243L425.728 380.047L419.87 376.217L425.668 372.667L423.674 369.41L418.287 372.708V366.223H414.468V372.686Z" fill="#7D943D"/>
<circle cx="356.65" cy="407.14" r="13.962" fill="white"/>
<path d="M356.651 393.174C364.362 393.174 370.613 399.425 370.613 407.136C370.613 414.847 364.362 421.098 356.651 421.098C348.94 421.098 342.689 414.847 342.689 407.136C342.69 399.425 348.94 393.174 356.651 393.174ZM354.743 403.709L349.445 400.246L347.355 403.443L353.002 407.134L347.079 410.762L349.073 414.02L354.743 410.547V417.029H358.562V410.769L363.913 414.267L366.003 411.07L360.144 407.239L365.943 403.688L363.949 400.432L358.562 403.729V397.248H354.743V403.709Z" fill="#7D943D"/>
<circle cx="341.136" cy="359.048" r="13.962" fill="white"/>
<path d="M341.136 345.086C348.847 345.086 355.098 351.337 355.098 359.048C355.098 366.759 348.847 373.01 341.136 373.01C333.425 373.01 327.174 366.759 327.174 359.048C327.174 351.337 333.425 345.086 341.136 345.086ZM339.229 355.619L333.931 352.156L331.841 355.354L337.488 359.045L331.565 362.672L333.56 365.93L339.229 362.458V368.938H343.048V362.679L348.398 366.177L350.488 362.98L344.629 359.15L350.43 355.599L348.436 352.342L343.048 355.641V349.156H339.229V355.619Z" fill="#7D943D"/>
<circle cx="324.07" cy="414.898" r="13.962" fill="white"/>
<path d="M324.073 400.932C331.784 400.932 338.035 407.183 338.035 414.894C338.035 422.605 331.784 428.855 324.073 428.855C316.362 428.855 310.111 422.605 310.111 414.894C310.111 407.183 316.362 400.932 324.073 400.932ZM322.165 411.467L316.867 408.004L314.777 411.201L320.424 414.892L314.501 418.52L316.495 421.777L322.165 418.305V424.785H325.984V418.526L331.335 422.024L333.425 418.828L327.565 414.997L333.365 411.446L331.371 408.189L325.984 411.487V405.004H322.165V411.467Z" fill="#7D943D"/>
<circle cx="251.934" cy="494.79" r="13.962" fill="white"/>
<path d="M251.931 480.828C259.642 480.828 265.893 487.079 265.893 494.79C265.893 502.501 259.642 508.752 251.931 508.752C244.22 508.752 237.969 502.501 237.969 494.79C237.969 487.079 244.22 480.828 251.931 480.828ZM250.023 491.36L244.727 487.898L242.637 491.096L248.283 494.786L242.36 498.414L244.354 501.672L250.023 498.2V504.68H253.843V498.42L259.194 501.919L261.284 498.723L255.425 494.892L261.225 491.341L259.23 488.084L253.843 491.383V484.898H250.023V491.36Z" fill="#7D943D"/>
<circle cx="223.234" cy="507.2" r="13.962" fill="white"/>
<path d="M223.231 493.238C230.942 493.238 237.193 499.489 237.193 507.2C237.193 514.911 230.942 521.162 223.231 521.162C215.52 521.162 209.27 514.911 209.27 507.2C209.27 499.489 215.521 493.238 223.231 493.238ZM221.324 503.77L216.026 500.307L213.937 503.504L219.585 507.196L213.661 510.824L215.655 514.082L221.324 510.61V517.09H225.144V510.829L230.494 514.327L232.584 511.131L226.727 507.302L232.525 503.751L230.531 500.494L225.144 503.793V497.309H221.324V503.77Z" fill="#7D943D"/>
<circle cx="116.192" cy="490.136" r="13.962" fill="white"/>
<path d="M116.188 476.176C123.899 476.176 130.15 482.427 130.15 490.138C130.15 497.849 123.899 504.1 116.188 504.1C108.478 504.1 102.227 497.849 102.227 490.138C102.227 482.427 108.478 476.176 116.188 476.176ZM114.282 486.709L108.984 483.246L106.895 486.443L112.542 490.135L106.619 493.762L108.613 497.02L114.282 493.548V500.027H118.102V493.769L123.452 497.267L125.542 494.07L119.683 490.24L125.483 486.688L123.489 483.432L118.102 486.73V480.246H114.282V486.709Z" fill="#7D943D"/>
<circle cx="72.754" cy="493.239" r="13.962" fill="white"/>
<path d="M72.7549 479.271C80.4659 479.271 86.7167 485.522 86.7168 493.233C86.7168 500.944 80.4659 507.195 72.7549 507.195C65.0439 507.195 58.793 500.944 58.793 493.233C58.793 485.522 65.044 479.272 72.7549 479.271ZM70.8477 489.806L65.5508 486.344L63.4609 489.541L69.1074 493.231L63.1846 496.859L65.1787 500.117L70.8477 496.646V503.125H74.667V496.865L80.0186 500.364L82.1084 497.168L76.249 493.337L82.0488 489.786L80.0547 486.529L74.667 489.828V483.344H70.8477V489.806Z" fill="#7D943D"/>
<circle cx="280.633" cy="478.501" r="13.962" fill="white"/>
<path d="M280.63 464.533C288.341 464.533 294.592 470.784 294.592 478.495C294.592 486.206 288.341 492.457 280.63 492.457C272.919 492.457 266.668 486.206 266.668 478.495C266.668 470.784 272.919 464.533 280.63 464.533ZM278.723 475.068L273.425 471.605L271.335 474.803L276.982 478.494L271.06 482.121L273.054 485.379L278.723 481.907V488.387H282.542V482.128L287.893 485.626L289.982 482.43L284.123 478.6L289.924 475.048L287.93 471.791L282.542 475.09V468.605H278.723V475.068Z" fill="#7D943D"/>
<circle cx="438.87" cy="317.163" r="13.962" fill="white"/>
<path d="M438.87 303.201C446.581 303.201 452.832 309.452 452.832 317.163C452.832 324.874 446.581 331.125 438.87 331.125C431.159 331.125 424.908 324.874 424.908 317.163C424.908 309.452 431.159 303.201 438.87 303.201ZM436.963 313.734L431.665 310.271L429.575 313.469L435.223 317.16L429.3 320.787L431.294 324.045L436.963 320.573V327.053H440.782V320.794L446.133 324.292L448.223 321.096L442.363 317.266L448.164 313.714L446.17 310.457L440.782 313.756V307.271H436.963V313.734Z" fill="#7D943D"/>
<circle cx="492.392" cy="311.734" r="13.962" fill="white"/>
<path d="M492.394 297.771C500.105 297.771 506.355 304.022 506.355 311.733C506.355 319.444 500.105 325.695 492.394 325.695C484.683 325.695 478.432 319.444 478.432 311.733C478.432 304.022 484.683 297.772 492.394 297.771ZM490.485 308.305L485.188 304.842L483.098 308.039L488.744 311.729L482.821 315.357L484.815 318.615L490.485 315.143V321.623H494.305V315.364L499.655 318.862L501.745 315.666L495.886 311.835L501.686 308.284L499.691 305.027L494.305 308.325V301.842H490.485V308.305Z" fill="#7D943D"/>
<circle cx="634.339" cy="320.265" r="13.962" fill="white"/>
<path d="M634.337 306.307C642.048 306.307 648.299 312.558 648.299 320.269C648.299 327.98 642.048 334.23 634.337 334.23C626.626 334.23 620.375 327.98 620.375 320.269C620.375 312.558 626.626 306.307 634.337 306.307ZM632.429 316.838L627.131 313.375L625.041 316.572L630.689 320.265L624.766 323.893L626.76 327.15L632.429 323.679V330.156H636.248V323.897L641.599 327.396L643.688 324.199L637.831 320.37L643.63 316.819L641.636 313.562L636.248 316.861V310.375H632.429V316.838Z" fill="#7D943D"/>
<circle cx="631.235" cy="424.204" r="13.962" fill="white"/>
<path d="M631.231 410.242C638.942 410.242 645.193 416.493 645.193 424.204C645.193 431.915 638.942 438.166 631.231 438.166C623.52 438.166 617.27 431.915 617.27 424.204C617.27 416.493 623.521 410.242 631.231 410.242ZM629.326 420.775L624.028 417.312L621.938 420.51L627.586 424.201L621.663 427.828L623.657 431.086L629.326 427.614V434.094H633.146V427.835L638.496 431.333L640.586 428.137L634.727 424.307L640.527 420.755L638.533 417.498L633.146 420.797V414.312H629.326V420.775Z" fill="#7D943D"/>
<circle cx="685.533" cy="345.86" r="13.962" fill="white"/>
<path d="M685.534 331.898C693.245 331.898 699.496 338.149 699.496 345.86C699.496 353.571 693.245 359.822 685.534 359.822C677.823 359.822 671.572 353.571 671.572 345.86C671.572 338.149 677.823 331.898 685.534 331.898ZM683.626 342.431L678.329 338.969L676.239 342.166L681.886 345.856L675.963 349.484L677.957 352.742L683.626 349.271V355.75H687.445V349.49L692.797 352.989L694.887 349.793L689.027 345.962L694.827 342.411L692.833 339.154L687.445 342.453V335.969H683.626V342.431Z" fill="#7D943D"/>
<circle cx="708.027" cy="366.804" r="13.962" fill="white"/>
<path d="M708.022 352.846C715.733 352.846 721.984 359.097 721.984 366.808C721.984 374.519 715.733 380.77 708.022 380.77C700.312 380.769 694.061 374.519 694.061 366.808C694.061 359.097 700.312 352.846 708.022 352.846ZM706.116 363.377L700.818 359.914L698.729 363.111L704.376 366.803L698.453 370.43L700.447 373.688L706.116 370.216V376.695H709.936V370.437L715.286 373.935L717.376 370.738L711.517 366.908L717.317 363.356L715.323 360.1L709.936 363.398V356.914H706.116V363.377Z" fill="#7D943D"/>
<circle cx="734.401" cy="322.589" r="13.962" fill="white"/>
<path d="M734.397 308.627C742.108 308.627 748.359 314.878 748.359 322.589C748.359 330.3 742.108 336.551 734.397 336.551C726.687 336.551 720.436 330.3 720.436 322.589C720.436 314.878 726.687 308.627 734.397 308.627ZM732.491 319.162L727.193 315.699L725.104 318.896L730.748 322.586L724.827 326.213L726.821 329.471L732.491 325.998V332.48H736.311V326.222L741.661 329.72L743.751 326.523L737.89 322.691L743.691 319.14L741.697 315.883L736.311 319.181V312.699H732.491V319.162Z" fill="#7D943D"/>
<circle cx="749.138" cy="357.497" r="13.962" fill="white"/>
<path d="M749.134 343.535C756.845 343.535 763.096 349.786 763.096 357.497C763.096 365.208 756.845 371.459 749.134 371.459C741.423 371.459 735.172 365.208 735.172 357.497C735.172 349.786 741.423 343.535 749.134 343.535ZM747.229 354.066L741.931 350.604L739.841 353.801L745.489 357.493L739.565 361.121L741.56 364.379L747.229 360.907V367.387H751.048V361.126L756.398 364.624L758.488 361.428L752.631 357.599L758.43 354.048L756.436 350.791L751.048 354.09V347.605H747.229V354.066Z" fill="#7D943D"/>
<circle cx="824.378" cy="350.517" r="13.962" fill="white"/>
<path d="M824.382 336.549C832.093 336.549 838.344 342.8 838.344 350.511C838.344 358.222 832.093 364.473 824.382 364.473C816.671 364.473 810.42 358.222 810.42 350.511C810.42 342.8 816.671 336.549 824.382 336.549ZM822.472 347.083L817.175 343.621L815.085 346.818L820.731 350.509L814.809 354.137L816.803 357.395L822.472 353.923V360.402H826.291V354.143L831.643 357.642L833.732 354.445L827.873 350.614L833.673 347.063L831.679 343.807L826.291 347.105V340.621H822.472V347.083Z" fill="#7D943D"/>
<circle cx="598.658" cy="147.29" r="13.962" fill="white"/>
<path d="M598.655 133.328C606.366 133.328 612.617 139.579 612.617 147.29C612.617 155.001 606.366 161.252 598.655 161.252C590.944 161.252 584.693 155.001 584.693 147.29C584.693 139.579 590.944 133.328 598.655 133.328ZM596.749 143.863L591.451 140.4L589.361 143.598L595.006 147.287L589.085 150.914L591.079 154.172L596.749 150.699V157.182H600.568V150.923L605.919 154.421L608.009 151.225L602.147 147.393L607.949 143.841L605.955 140.584L600.568 143.882V137.4H596.749V143.863Z" fill="#7D943D"/>
<circle cx="490.064" cy="175.214" r="13.962" fill="white"/>
<path d="M490.06 161.256C497.771 161.256 504.021 167.507 504.021 175.218C504.021 182.929 497.771 189.18 490.06 189.18C482.349 189.18 476.098 182.929 476.098 175.218C476.098 167.507 482.349 161.256 490.06 161.256ZM488.154 171.789L482.856 168.326L480.767 171.523L486.414 175.215L480.491 178.842L482.485 182.1L488.154 178.628V185.109H491.974V178.849L497.324 182.347L499.414 179.15L493.555 175.32L499.355 171.769L497.361 168.512L491.974 171.811V165.328H488.154V171.789Z" fill="#7D943D"/>
<circle cx="404.74" cy="169.007" r="13.962" fill="white"/>
<path d="M404.743 155.045C412.454 155.045 418.705 161.296 418.705 169.007C418.705 176.718 412.454 182.969 404.743 182.969C397.032 182.969 390.781 176.718 390.781 169.007C390.781 161.296 397.032 155.045 404.743 155.045ZM402.835 165.58L397.537 162.117L395.447 165.314L401.093 169.005L395.172 172.631L397.166 175.889L402.835 172.417V178.898H406.654V172.64L412.005 176.138L414.095 172.941L408.234 169.109L414.036 165.558L412.042 162.301L406.654 165.6V159.117H402.835V165.58Z" fill="#7D943D"/>
<circle cx="352.771" cy="158.148" r="13.962" fill="white"/>
<path d="M352.772 144.189C360.483 144.189 366.734 150.44 366.734 158.151C366.734 165.862 360.483 172.113 352.772 172.113C345.062 172.113 338.811 165.862 338.811 158.151C338.811 150.44 345.062 144.19 352.772 144.189ZM350.864 154.723L345.566 151.26L343.477 154.457L349.123 158.147L343.2 161.775L345.194 165.033L350.864 161.561V168.039H354.684V161.782L360.034 165.28L362.124 162.084L356.265 158.253L362.064 154.702L360.07 151.445L354.684 154.743V148.258H350.864V154.723Z" fill="#7D943D"/>
<circle cx="326.399" cy="165.905" r="13.962" fill="white"/>
<path d="M326.399 151.947C334.11 151.947 340.361 158.198 340.361 165.909C340.361 173.62 334.11 179.871 326.399 179.871C318.688 179.871 312.438 173.62 312.438 165.909C312.438 158.198 318.688 151.947 326.399 151.947ZM324.49 162.48L319.192 159.018L317.103 162.215L322.75 165.906L316.827 169.533L318.821 172.791L324.49 169.319V175.797H328.31V169.54L333.66 173.038L335.75 169.842L329.891 166.012L335.691 162.46L333.697 159.203L328.31 162.502V156.016H324.49V162.48Z" fill="#7D943D"/>
<circle cx="224.785" cy="106.956" r="13.962" fill="white"/>
<path d="M224.786 92.9902C232.497 92.9902 238.748 99.2412 238.748 106.952C238.748 114.663 232.497 120.914 224.786 120.914C217.075 120.914 210.824 114.663 210.824 106.952C210.824 99.2412 217.075 92.9903 224.786 92.9902ZM222.879 103.524L217.582 100.062L215.492 103.26L221.139 106.95L215.216 110.578L217.21 113.836L222.879 110.364V116.844H226.698V110.584L232.05 114.083L234.14 110.887L228.28 107.056L234.08 103.505L232.086 100.248L226.698 103.547V97.0625H222.879V103.524Z" fill="#7D943D"/>
<circle cx="284.512" cy="190.728" r="13.962" fill="white"/>
<path d="M284.507 176.76C292.218 176.76 298.469 183.011 298.469 190.722C298.469 198.433 292.218 204.684 284.507 204.684C276.796 204.684 270.545 198.433 270.545 190.722C270.545 183.011 276.796 176.76 284.507 176.76ZM282.602 187.295L277.304 183.832L275.214 187.029L280.86 190.72L274.938 194.348L276.932 197.605L282.602 194.133V200.613H286.421V194.354L291.771 197.853L293.861 194.656L288.002 190.825L293.802 187.274L291.808 184.018L286.421 187.315V180.832H282.602V187.295Z" fill="#7D943D"/>
<circle cx="287.614" cy="420.327" r="13.962" fill="white"/>
<path d="M287.612 406.361C295.323 406.361 301.574 412.612 301.574 420.323C301.574 428.034 295.323 434.285 287.612 434.285C279.901 434.285 273.65 428.034 273.65 420.323C273.65 412.612 279.901 406.361 287.612 406.361ZM285.706 416.895L280.408 413.432L278.318 416.629L283.967 420.321L278.043 423.949L280.037 427.207L285.706 423.735V430.215H289.525V423.954L294.876 427.452L296.966 424.256L291.108 420.427L296.907 416.876L294.913 413.619L289.525 416.918V410.434H285.706V416.895Z" fill="#7D943D"/>
<circle cx="491.615" cy="407.915" r="13.962" fill="white"/>
<path d="M491.612 393.947C499.323 393.947 505.574 400.198 505.574 407.909C505.574 415.62 499.323 421.871 491.612 421.871C483.901 421.871 477.65 415.62 477.65 407.909C477.65 400.198 483.901 393.947 491.612 393.947ZM489.705 404.482L484.407 401.02L482.317 404.217L487.965 407.908L482.042 411.535L484.036 414.793L489.705 411.321V417.801H493.524V411.542L498.875 415.04L500.965 411.844L495.105 408.014L500.906 404.462L498.912 401.205L493.524 404.504V398.02H489.705V404.482Z" fill="#7D943D"/>
</svg>
